<svg width="66" height="66" viewBox="0 0 66 66" fill="none" xmlns="http://www.w3.org/2000/svg">
<circle cx="33" cy="33" r="32.5" fill="#F2F2F2" stroke="#2F80ED"/>
<path d="M63 33C63 49.5685 49.5685 63 33 63C16.4315 63 3 49.5685 3 33C3 16.4315 16.4315 3 33 3C49.5685 3 63 16.4315 63 33Z" fill="#2F80ED"/>
<path d="M50.9255 42.3437C50.8265 42.054 50.1967 41.6271 49.0364 41.0642C48.7221 40.8867 48.2742 40.6456 47.6946 40.3397C47.1146 40.0337 46.5881 39.7519 46.116 39.4942C45.6431 39.2367 45.2 38.9872 44.786 38.7461C44.7198 38.6978 44.5126 38.5571 44.1646 38.3232C43.8163 38.0899 43.5225 37.9168 43.2817 37.8039C43.0415 37.6916 42.8052 37.6351 42.5732 37.6351C42.2418 37.6351 41.8278 37.8647 41.3308 38.3232C40.8338 38.7823 40.3779 39.2809 39.9638 39.8207C39.5496 40.3602 39.1104 40.8589 38.6468 41.3177C38.1825 41.7767 37.8011 42.006 37.5031 42.006C37.3536 42.006 37.167 41.9655 36.9435 41.8856C36.7201 41.8051 36.5502 41.7362 36.4335 41.6806C36.3179 41.6239 36.1194 41.5116 35.8375 41.342C35.555 41.1729 35.398 41.0803 35.3649 41.0642C33.0945 39.8404 31.1474 38.4398 29.5231 36.8627C27.8993 35.2846 26.4572 33.3934 25.1978 31.1878C25.1812 31.1556 25.0857 31.0026 24.9118 30.7291C24.7377 30.4553 24.6216 30.2624 24.5636 30.1494C24.5056 30.0368 24.4352 29.8717 24.3525 29.6544C24.2698 29.4371 24.2282 29.2561 24.2282 29.1111C24.2282 28.8215 24.4645 28.4511 24.9368 28.0003C25.4091 27.5497 25.923 27.1229 26.478 26.7208C27.0334 26.3186 27.5467 25.8758 28.0192 25.393C28.4915 24.91 28.7276 24.5077 28.7276 24.1858C28.7276 23.9606 28.6696 23.731 28.5537 23.4976C28.4377 23.2638 28.2596 22.9784 28.0192 22.6402C27.7787 22.3021 27.6337 22.1011 27.5839 22.0364C27.3356 21.6342 27.079 21.2036 26.8135 20.7448C26.548 20.286 26.2583 19.7747 25.9433 19.2113C25.6285 18.6482 25.3801 18.2134 25.1976 17.9076C24.6179 16.7809 24.1788 16.1689 23.8804 16.0727C23.7643 16.0244 23.5902 16 23.3584 16C22.9107 16 22.3266 16.0803 21.6058 16.2416C20.8846 16.4025 20.3172 16.5713 19.9028 16.7487C19.0742 17.0866 18.1959 18.0685 17.2677 19.6942C16.4226 21.2071 16 22.7045 16 24.1854C16 24.6197 16.029 25.0422 16.087 25.4531C16.145 25.8636 16.2486 26.3265 16.3979 26.8417C16.547 27.3568 16.6672 27.7394 16.7581 27.9886C16.8491 28.2379 17.019 28.6846 17.2677 29.3287C17.516 29.9727 17.6653 30.3669 17.715 30.5118C18.295 32.0895 18.9828 33.4979 19.7782 34.7376C21.0868 36.7981 22.8727 38.9275 25.1348 41.125C27.397 43.3223 29.5887 45.057 31.7101 46.3287C32.9861 47.1012 34.4366 47.7692 36.0606 48.333C36.2098 48.381 36.6156 48.5257 37.2783 48.7678C37.9413 49.0092 38.4013 49.1742 38.658 49.2627C38.9147 49.3514 39.3087 49.4683 39.8385 49.6133C40.3695 49.7584 40.8456 49.859 41.2681 49.9158C41.691 49.9713 42.126 50 42.5732 50C44.0977 50 45.6393 49.5893 47.1971 48.7684C48.8705 47.8671 49.8811 47.0138 50.2292 46.2083C50.4122 45.8062 50.5855 45.2549 50.7512 44.5544C50.9174 43.8543 51 43.287 51 42.8522C51.0005 42.6261 50.9755 42.4574 50.9255 42.3437Z" fill="white"/>
</svg>
