<svg width="66" height="66" viewBox="0 0 66 66" fill="none" xmlns="http://www.w3.org/2000/svg">
<circle cx="33" cy="33" r="32.5" fill="#F2F2F2" stroke="#2F80ED"/>
<path d="M63 33C63 49.5685 49.5685 63 33 63C16.4315 63 3 49.5685 3 33C3 16.4315 16.4315 3 33 3C49.5685 3 63 16.4315 63 33Z" fill="#2F80ED"/>
<path d="M48.7463 21.6639H39.7958V20.0245C39.796 19.4865 39.5946 18.9706 39.2364 18.5912C38.8836 18.2158 38.4061 18.0034 37.9073 18H27.8127C27.3273 18.0002 26.8605 18.1991 26.5088 18.5554L26.471 18.5957C26.1127 18.9751 25.9114 19.491 25.9116 20.029V21.6639H16.9737C15.3333 21.6688 14.0046 23.0837 14 24.8306V44.4533C14.0046 46.2001 15.3333 47.615 16.9737 47.62V47.6155H48.7463C50.3851 47.6106 51.7131 46.1984 51.72 44.4533V24.8306C51.7154 23.0837 50.3867 21.6688 48.7463 21.6639ZM27.1482 20.0245C27.1489 19.8325 27.2216 19.6487 27.3501 19.5139L27.3711 19.4915C27.4921 19.3741 27.649 19.3072 27.8127 19.3034H37.9073C38.087 19.3031 38.2595 19.3788 38.3868 19.5139C38.5153 19.6487 38.5879 19.8325 38.5887 20.0245V21.6594H27.1482V20.0245ZM18.9085 46.3121H16.9737C16.0109 46.3072 15.2309 45.4785 15.224 44.4533V24.8306C15.2217 23.7982 16.0043 22.9588 16.9737 22.9538H18.9085V46.3121ZM22.5551 46.3121H20.1324L20.1367 37.2958H22.5551V46.3121ZM22.5551 35.952H20.1324L20.1367 33.2646H22.5551V35.952ZM22.5551 31.9791H20.1324L20.1367 22.9628H22.5551V31.9791ZM41.9409 46.3121H23.7791L23.7833 22.9628H41.9409V46.3121ZM45.5876 46.3121H43.1649V37.2868H45.5876V46.3121ZM45.5876 35.9431H43.1649V33.2556H45.5876V35.9431ZM45.5876 31.9791H43.1649V22.9538H45.5876V31.9791ZM50.496 44.4533C50.4914 45.4803 49.7108 46.3116 48.7463 46.3166H46.8115V22.9538H48.7463C49.7108 22.9588 50.4914 23.7901 50.496 24.8171V44.4533Z" fill="white"/>
</svg>
