<svg width="66" height="66" viewBox="0 0 66 66" fill="none" xmlns="http://www.w3.org/2000/svg">
<circle cx="33" cy="33" r="32.5" fill="#F2F2F2" stroke="#2F80ED"/>
<path d="M63 33C63 49.5685 49.5685 63 33 63C16.4315 63 3 49.5685 3 33C3 16.4315 16.4315 3 33 3C49.5685 3 63 16.4315 63 33Z" fill="#2F80ED"/>
<g clip-path="url(#clip0)">
<path d="M32.6865 32.3047C35.5983 32.3047 38.1197 31.4028 40.1798 29.6233C42.24 27.8441 43.2843 25.6671 43.2843 23.1521C43.2843 20.6379 42.24 18.4606 40.1795 16.6809C38.119 14.9019 35.5979 14 32.6865 14C29.7743 14 27.2536 14.9019 25.1935 16.6811C23.1333 18.4604 22.0886 20.6376 22.0886 23.1521C22.0886 25.6671 23.1333 27.8444 25.1938 29.6236C27.2543 31.4025 29.7753 32.3047 32.6865 32.3047Z" fill="white"/>
<path d="M51.2298 43.2201C51.1704 42.4796 51.0502 41.6719 50.8733 40.819C50.6947 39.9597 50.4648 39.1473 50.1895 38.4048C49.9052 37.6374 49.5185 36.8796 49.0404 36.1534C48.5443 35.3996 47.9615 34.7432 47.3076 34.2031C46.6238 33.638 45.7866 33.1837 44.8184 32.8524C43.8536 32.5227 42.7845 32.3557 41.6407 32.3557C41.1916 32.3557 40.7572 32.5149 39.9183 32.9866C39.402 33.2774 38.7981 33.6137 38.124 33.9857C37.5476 34.3028 36.7668 34.6 35.8024 34.869C34.8614 35.132 33.906 35.2653 32.9631 35.2653C32.0201 35.2653 31.0651 35.132 30.1231 34.869C29.1597 34.6003 28.3788 34.3031 27.8031 33.9859C27.1354 33.6175 26.5312 33.2812 26.0072 32.9863C25.1693 32.5146 24.7346 32.3555 24.2854 32.3555C23.1414 32.3555 22.0725 32.5227 21.1081 32.8527C20.1406 33.1835 19.303 33.6378 18.6186 34.2034C17.965 34.7438 17.3819 35.3999 16.8864 36.1534C16.4087 36.8796 16.022 37.6371 15.7373 38.4051C15.4624 39.1476 15.2324 39.9597 15.0538 40.819C14.8769 41.6707 14.7567 42.4787 14.6973 43.2209C14.6389 43.948 14.6094 44.7027 14.6094 45.4649C14.6094 47.4485 15.3395 49.0543 16.7793 50.2386C18.2013 51.4073 20.0829 52.0002 22.3709 52.0002H43.5572C45.8453 52.0002 47.7262 51.4076 49.1485 50.2386C50.5887 49.0552 51.3188 47.4491 51.3188 45.4646C51.3185 44.6989 51.2886 43.9437 51.2298 43.2201Z" fill="white"/>
</g>
<defs>
<clipPath id="clip0">
<rect x="11" y="14" width="44" height="38" fill="white"/>
</clipPath>
</defs>
</svg>
