<svg width="66" height="66" viewBox="0 0 66 66" fill="none" xmlns="http://www.w3.org/2000/svg">
<circle cx="33" cy="33" r="32.5" fill="#F2F2F2" stroke="#2F80ED"/>
<path d="M63 33C63 49.5685 49.5685 63 33 63C16.4315 63 3 49.5685 3 33C3 16.4315 16.4315 3 33 3C49.5685 3 63 16.4315 63 33Z" fill="#2F80ED"/>
<path d="M33 9C23.6439 9 16 16.0755 16 24.7358C16 29.2642 18.1403 33.6226 21.7482 36.566C24.4388 39.0566 24.1942 44.3774 24.1331 44.434C24.1331 44.717 24.1942 44.9434 24.4388 45.1698C24.6223 45.3396 24.9281 45.4528 25.1727 45.4528H40.7662C41.0719 45.4528 41.3165 45.3396 41.5 45.1698C41.6835 45 41.8058 44.717 41.8058 44.434C41.8058 44.3774 41.5 39.0566 44.1906 36.566C44.2518 36.5094 44.3129 36.4528 44.3741 36.3962C47.9209 33.3962 50 29.1509 50 24.7358C50 16.0755 42.3561 9 33 9ZM42.7842 35.0943C42.723 35.1509 42.6007 35.2642 42.6007 35.3208C40.2158 37.6981 39.7878 41.6038 39.7266 43.4717H26.2122C26.1511 41.6038 25.723 37.5283 23.1547 35.0943C19.9137 32.4906 18.018 28.6981 18.018 24.6792C18.018 17.0377 24.6835 10.8679 32.9388 10.8679C41.1942 10.8679 47.8597 17.0377 47.8597 24.6792C47.8597 28.6981 46.0252 32.4906 42.7842 35.0943Z" fill="white"/>
<path d="M32.9389 13.0189C32.3885 13.0189 31.8993 13.4717 31.8993 13.9811C31.8993 14.4906 32.3885 14.9434 32.9389 14.9434C39.1151 14.9434 44.0683 19.5849 44.0683 25.2453C44.0683 25.7547 44.5576 26.2075 45.1079 26.2075C45.6583 26.2075 46.1475 25.7547 46.1475 25.2453C46.2086 18.5094 40.277 13.0189 32.9389 13.0189Z" fill="white"/>
<path d="M39.7266 46.5283H26.1511C24.7446 46.5283 23.5827 47.6038 23.5827 48.9057C23.5827 50.2076 24.7446 51.283 26.1511 51.283H39.6655C41.1331 51.2264 42.295 50.2076 42.295 48.9057C42.295 47.6038 41.1331 46.5283 39.7266 46.5283ZM39.7266 49.3019H26.1511C25.9065 49.3019 25.6619 49.1321 25.6619 48.8491C25.6619 48.566 25.8453 48.3962 26.1511 48.3962H39.6655C39.9101 48.3962 40.1547 48.566 40.1547 48.8491C40.1547 49.1321 39.9712 49.3019 39.7266 49.3019Z" fill="white"/>
<path d="M37.7086 52.2453H28.1691C26.7626 52.2453 25.6007 53.3208 25.6007 54.6226C25.6007 55.9245 26.7626 57 28.1691 57H37.7086C39.1151 57 40.277 55.9245 40.277 54.6226C40.277 53.2642 39.1151 52.2453 37.7086 52.2453ZM37.7086 55.0189H28.1691C27.9245 55.0189 27.6799 54.8491 27.6799 54.566C27.6799 54.283 27.8633 54.1132 28.1691 54.1132H37.7086C37.9532 54.1132 38.1978 54.283 38.1978 54.566C38.1978 54.8491 37.9532 55.0189 37.7086 55.0189Z" fill="white"/>
</svg>
