<svg width="66" height="66" viewBox="0 0 66 66" fill="none" xmlns="http://www.w3.org/2000/svg">
<circle cx="33" cy="33" r="32.5" fill="#F2F2F2" stroke="#2F80ED"/>
<path d="M63 33C63 49.5685 49.5685 63 33 63C16.4315 63 3 49.5685 3 33C3 16.4315 16.4315 3 33 3C49.5685 3 63 16.4315 63 33Z" fill="#2F80ED"/>
<path d="M48 15H18C17.2046 15.0009 16.4421 15.3085 15.8797 15.8553C15.3173 16.4021 15.001 17.1434 15 17.9167V40.0833C15.001 40.8566 15.3173 41.5979 15.8797 42.1447C16.4421 42.6915 17.2046 42.9991 18 43H27.9342L26.5842 46.5H25.2C24.7226 46.5 24.2648 46.6844 23.9272 47.0126C23.5896 47.3408 23.4 47.7859 23.4 48.25V49.4167C23.4 49.5714 23.4632 49.7197 23.5757 49.8291C23.6883 49.9385 23.8409 50 24 50H42C42.1591 50 42.3117 49.9385 42.4243 49.8291C42.5368 49.7197 42.6 49.5714 42.6 49.4167V48.25C42.6 47.7859 42.4104 47.3408 42.0728 47.0126C41.7352 46.6844 41.2774 46.5 40.8 46.5H39.4158L38.0658 43H48C48.7954 42.9991 49.5579 42.6915 50.1203 42.1447C50.6827 41.5979 50.9991 40.8566 51 40.0833V17.9167C50.9991 17.1434 50.6827 16.4021 50.1203 15.8553C49.5579 15.3085 48.7954 15.0009 48 15ZM18 16.1667H48C48.4774 16.1667 48.9352 16.351 49.2728 16.6792C49.6104 17.0074 49.8 17.4525 49.8 17.9167V36H16.2V17.9167C16.2 17.4525 16.3896 17.0074 16.7272 16.6792C17.0648 16.351 17.5226 16.1667 18 16.1667ZM41.4 48.25V48.8333H24.6V48.25C24.6 48.0953 24.6632 47.9469 24.7757 47.8375C24.8883 47.7281 25.0409 47.6667 25.2 47.6667H40.8C40.9591 47.6667 41.1117 47.7281 41.2243 47.8375C41.3368 47.9469 41.4 48.0953 41.4 48.25ZM38.1342 46.5H27.8658L29.2158 43H36.7842L38.1342 46.5ZM48 41.8333H18C17.5226 41.8333 17.0648 41.649 16.7272 41.3208C16.3896 40.9926 16.2 40.5475 16.2 40.0833V37.1667H49.8V40.0833C49.8 40.5475 49.6104 40.9926 49.2728 41.3208C48.9352 41.649 48.4774 41.8333 48 41.8333Z" fill="white"/>
<path d="M33 37.75C32.644 37.75 32.296 37.8526 32 38.0449C31.704 38.2372 31.4733 38.5105 31.337 38.8303C31.2008 39.1501 31.1651 39.5019 31.2346 39.8414C31.304 40.1809 31.4755 40.4927 31.7272 40.7374C31.9789 40.9822 32.2997 41.1488 32.6488 41.2164C32.998 41.2839 33.3599 41.2492 33.6888 41.1168C34.0177 40.9843 34.2989 40.76 34.4966 40.4722C34.6944 40.1845 34.8 39.8461 34.8 39.5C34.8 39.0359 34.6104 38.5908 34.2728 38.2626C33.9352 37.9344 33.4774 37.75 33 37.75ZM33 40.0833C32.8813 40.0833 32.7653 40.0491 32.6667 39.985C32.568 39.9209 32.4911 39.8298 32.4457 39.7232C32.4003 39.6166 32.3884 39.4994 32.4115 39.3862C32.4347 39.273 32.4918 39.1691 32.5757 39.0875C32.6596 39.0059 32.7666 38.9504 32.8829 38.9279C32.9993 38.9054 33.12 38.9169 33.2296 38.9611C33.3392 39.0052 33.433 39.08 33.4989 39.1759C33.5648 39.2718 33.6 39.3846 33.6 39.5C33.6 39.6547 33.5368 39.8031 33.4243 39.9125C33.3117 40.0219 33.1591 40.0833 33 40.0833Z" fill="white"/>
</svg>
